<svg xmlns="http://www.w3.org/2000/svg" width="20.52" height="17.59" viewBox="0 0 20.52 17.59">
  <g id="database-svgrepo-com" transform="translate(-11.6 -46.5)">
    <path id="Path_11526" data-name="Path 11526" d="M298.627,259.4a4.327,4.327,0,1,0,4.327,4.327A4.332,4.332,0,0,0,298.627,259.4Zm0,7.622a3.3,3.3,0,1,1,3.3-3.3A3.3,3.3,0,0,1,298.627,267.022Z" transform="translate(-270.835 -203.964)" fill="#fff"/>
    <path id="Path_11527" data-name="Path 11527" d="M348.7,323.074h-2.145l.3-.327a.514.514,0,0,0-.76-.693l-1.083,1.188a.511.511,0,0,0,0,.693l1.083,1.188a.5.5,0,0,0,.382.168.534.534,0,0,0,.348-.134.512.512,0,0,0,.034-.726l-.3-.327H348.7a.514.514,0,1,0,0-1.028Z" transform="translate(-319.287 -263.828)" fill="#fff"/>
    <path id="Path_11528" data-name="Path 11528" d="M25.8,46.5H14.471A2.875,2.875,0,0,0,11.6,49.371v.042a2.857,2.857,0,0,0,1.242,2.359,2.892,2.892,0,0,0,0,4.751,2.895,2.895,0,0,0,1.641,5.272h7.748a.516.516,0,1,0,0-1.032H14.479a1.864,1.864,0,0,1,0-3.727H23.1A.516.516,0,0,0,23.1,56H14.479a1.864,1.864,0,0,1,0-3.727H25.79a1.859,1.859,0,0,1,1.855,1.872.505.505,0,0,0,.516.5.523.523,0,0,0,.516-.525,2.877,2.877,0,0,0-1.238-2.363A2.87,2.87,0,0,0,28.678,49.4v-.042A2.879,2.879,0,0,0,25.8,46.5Zm1.843,2.913A1.845,1.845,0,0,1,25.8,51.255H14.467a1.845,1.845,0,0,1-1.843-1.843v-.042a1.845,1.845,0,0,1,1.843-1.843H25.8a1.845,1.845,0,0,1,1.843,1.843v.042Z" fill="#fff"/>
    <path id="Path_11529" data-name="Path 11529" d="M204.014,103.1h-4.8a.516.516,0,1,0,0,1.032h4.8a.516.516,0,1,0,0-1.032Z" transform="translate(-179.247 -54.224)" fill="#fff"/>
    <circle id="Ellipse_1" data-name="Ellipse 1" cx="0.546" cy="0.546" r="0.546" transform="translate(15.499 48.846)" fill="#fff"/>
    <path id="Path_11530" data-name="Path 11530" d="M204.53,216.916a.516.516,0,0,0-.516-.516h-4.8a.516.516,0,1,0,0,1.033h4.8A.521.521,0,0,0,204.53,216.916Z" transform="translate(-179.247 -162.769)" fill="#fff"/>
    <circle id="Ellipse_2" data-name="Ellipse 2" cx="0.546" cy="0.546" r="0.546" transform="translate(15.499 53.601)" fill="#fff"/>
    <path id="Path_11531" data-name="Path 11531" d="M199.216,329.7a.516.516,0,1,0,0,1.032h2.174a.516.516,0,0,0,0-1.032Z" transform="translate(-179.247 -271.314)" fill="#fff"/>
    <circle id="Ellipse_3" data-name="Ellipse 3" cx="0.546" cy="0.546" r="0.546" transform="translate(15.499 58.357)" fill="#fff"/>
  </g>
</svg>
