<svg xmlns="http://www.w3.org/2000/svg" width="29.861" height="19.963" viewBox="0 0 29.861 19.963">
  <g id="Group_37187" data-name="Group 37187" transform="translate(-920.139 -246.018)">
    <path id="Path_11518" data-name="Path 11518" d="M4.29,5.908c2.4,3.07,6.827,8.759,6.827,8.759v7.111A1.19,1.19,0,0,0,12.3,22.963h2.375a1.19,1.19,0,0,0,1.187-1.185V14.667s4.417-5.689,6.815-8.759A1.182,1.182,0,0,0,21.744,4H5.228A1.182,1.182,0,0,0,4.29,5.908Z" transform="translate(916.619 242.518)" fill="#184d47" stroke="#fff" stroke-width="1"/>
    <rect id="Rectangle_4" data-name="Rectangle 4" width="10" height="1" transform="translate(940 252.008)" fill="#184d47"/>
    <rect id="Rectangle_5" data-name="Rectangle 5" width="9" height="1" transform="translate(937 256.008)" fill="#184d47"/>
    <rect id="Rectangle_6" data-name="Rectangle 6" width="10" height="1" transform="translate(934 259.008)" fill="#184d47"/>
  </g>
</svg>
